<svg width="100%" height="100%" viewBox="0 0 1053 284" version="1.1" xmlns="http://www.w3.org/2000/svg" xmlns:xlink="http://www.w3.org/1999/xlink" xml:space="preserve" xmlns:serif="http://www.serif.com/" style="fill-rule:evenodd;clip-rule:evenodd;stroke-linejoin:round;stroke-miterlimit:2;"><path d="M500.488,86.092l35.933,-0l-18.059,-32.154l-17.875,32.154Zm-40.266,29.683l46.954,-82.717l23.3,0l47.3,82.717l-24.688,0l-6.266,-11.162l-56.629,-0l-6.209,11.162l-23.762,0Z" style="fill:#224a9a;fill-rule:nonzero;"/><path d="M610.829,71.242l19.725,-0c15.575,-0 22.267,-2.075 22.267,-9.688c-0,-8.079 -6.692,-10.037 -22.15,-10.037l-19.842,-0l0,19.725Zm-22.383,44.533l-0,-82.717l44.3,0c27.921,0 43.033,6.921 43.033,27.225c0,16.959 -13.5,23.421 -24.804,25.725l27.112,29.767l-27.57,0l-21.809,-26.075l-17.879,0l0,26.075l-22.383,0Z" style="fill:#224a9a;fill-rule:nonzero;"/><path d="M785.479,33.058l31.613,0l-0,82.717l-21.805,0l0,-60.679l-26.766,60.679l-26.996,0l-26.996,-60.333l0,60.333l-20.421,0l0,-82.717l32.071,0l29.654,67.375l29.646,-67.375Z" style="fill:#224a9a;fill-rule:nonzero;"/><path d="M922.292,74.358c-0,-15.458 -11.192,-24.92 -32.421,-24.92c-20.763,-0 -32.183,9.229 -32.183,24.92c-0,15.575 11.304,25.034 32.183,25.034c21.346,-0 32.421,-9.342 32.421,-25.034m-87.68,0c0,-28.612 23.534,-43.379 55.259,-43.379c31.841,0 55.496,15 55.496,43.379c-0,28.613 -23.538,43.492 -55.496,43.492c-31.838,0 -55.259,-14.996 -55.259,-43.492" style="fill:#224a9a;fill-rule:nonzero;"/><path d="M985.2,71.242l19.725,-0c15.579,-0 22.271,-2.075 22.271,-9.688c-0,-8.079 -6.692,-10.037 -22.15,-10.037l-19.846,-0l-0,19.725Zm-22.379,44.533l-0,-82.717l44.3,0c27.917,0 43.029,6.921 43.029,27.225c0,16.959 -13.496,23.421 -24.8,25.725l27.108,29.767l-27.571,0l-21.808,-26.075l-17.879,0l-0,26.075l-22.379,0Z" style="fill:#224a9a;fill-rule:nonzero;"/><path d="M813.379,208.617l35.933,-0l-18.058,-32.154l-17.875,32.154Zm-40.266,29.683l46.954,-82.717l23.3,0l47.3,82.717l-24.688,0l-6.266,-11.162l-56.63,-0l-6.208,11.162l-23.762,0Z" style="fill:#224a9a;fill-rule:nonzero;"/><rect x="532.963" y="155.583" width="22.496" height="82.717" style="fill:#224a9a;"/><rect x="584.613" y="155.583" width="22.496" height="82.717" style="fill:#224a9a;"/><path d="M726.479,155.583l31.613,0l-0,82.717l-21.805,0l0,-60.683l-26.791,60.683l-26.996,0l-26.971,-60.333l0,60.333l-20.421,0l0,-82.717l32.071,0l29.625,67.375l29.675,-67.375Z" style="fill:#224a9a;fill-rule:nonzero;"/><path d="M901.925,238.3l-0,-82.717l22.5,0l0,32.996l14.533,0l29.65,-32.996l28.725,0l-39.108,40.955l42.454,41.762l-30.804,0l-30.917,-31.262l-14.533,-0l0,31.262l-22.5,0Z" style="fill:#224a9a;fill-rule:nonzero;"/><path d="M158.717,27.733c-8.9,18.355 -123.421,255.75 -123.421,255.75l-35.296,0c-0,0 118.558,-247.366 124.658,-260.008c7.421,-15.375 22.838,-22.467 40.946,-22.467l32.625,0c-12.542,1.892 -18.237,3.896 -25.242,8.446c-6.475,4.208 -10.925,11.379 -14.27,18.279" style="fill:#224a9a;fill-rule:nonzero;"/><path d="M350.146,26.033c-7.292,-14.775 -20.058,-26.033 -38.938,-26.033c-16.895,0 -33.62,9.167 -42.945,27.583l-117.255,255.9l35.121,0l55.104,-119.02l59.45,119.02l35.7,0l-77.725,-156.383l17.846,-38.129l96.525,194.512l35.7,0c0,0 -110.129,-221.579 -115.279,-231.937c1.7,-3.946 3.713,-8.292 5.721,-12.096c2.033,-3.858 6.358,-7.487 12.037,-7.487c6.196,-0 10.717,3.816 12.446,7.287c10.167,20.388 121.625,244.233 121.625,244.233l35.704,0c0,0 -122.05,-239.646 -130.837,-257.45" style="fill:#224a9a;fill-rule:nonzero;"/><path d="M227.654,32.758c3.267,-6.795 9.458,-15.787 15.438,-21.125c7.079,-6.312 14.921,-10.629 20.804,-10.629l-30.404,0c-16.629,0 -31.017,8.625 -40.696,28.633c-6.909,14.276 -118.104,253.846 -118.104,253.846l35.296,0c-0,0 105.441,-225.279 117.666,-250.725" style="fill:#224a9a;fill-rule:nonzero;"/></svg>